# xmcd
#
# Track frame offsets:
#	150
#	13484
#	27531
#	48507
#	61938
#	78070
#	91941
#	110352
#	123965
#	136956
#	151450
#	171978
#	194271
#
# Disc length: 2837 seconds
# Revision: 0
# Processed by: cddbd v1.5.2PL0 Copyright (c) Steve Scherf et al.
# Submitted via: dBpowerAMP V12.0
#
DISCID=a90b130d
DTITLE=Various Artists, Johnny Cash - Johnny Cash Remixed
DYEAR=2008
DGENRE=Country
TTITLE0=I Walk the Line (OD1 Muzic remix featuring Snoop Dogg)
TTITLE1=Big River (Count de Money remix)
TTITLE2=Get Rhythm (Philip Steir remix)
TTITLE3=Doin' My Time (The Heavy remix)
TTITLE4=Country Boy (Sonny J remix)
TTITLE5=Leave That Junk Alone (Alabama 3 remix)
TTITLE6=Port of Lonely Hearts (Midnight Juggernauts remix)
TTITLE7=Folsom Prison Blues (Pete Rock remix)
TTITLE8=Straight A's In Love (Troublemaker remix)
TTITLE9=Sugartime (Kennedy remix)
TTITLE10=Rock Island Line (Wolf remix)
TTITLE11=Belshazzar (Marching Drum remix)
TTITLE12=I Heard That Lonesome Whistle Blow (Apparat remix)
EXTD=
EXTT0=
EXTT1=
EXTT2=
EXTT3=
EXTT4=
EXTT5=
EXTT6=
EXTT7=
EXTT8=
EXTT9=
EXTT10=
EXTT11=
EXTT12=
PLAYORDER=
